<?xml version="1.0" encoding="UTF-8" standalone="no"?>
<svg
   xmlns:dc="http://purl.org/dc/elements/1.1/"
   xmlns:cc="http://creativecommons.org/ns#"
   xmlns:rdf="http://www.w3.org/1999/02/22-rdf-syntax-ns#"
   xmlns:svg="http://www.w3.org/2000/svg"
   xmlns="http://www.w3.org/2000/svg"
   xmlns:sodipodi="http://sodipodi.sourceforge.net/DTD/sodipodi-0.dtd"
   xmlns:inkscape="http://www.inkscape.org/namespaces/inkscape"
   width="100mm"
   height="100mm"
   viewBox="0 0 100 100"
   version="1.1"
   id="svg8"
   inkscape:version="1.0.2 (e86c870879, 2021-01-15, custom)"
   sodipodi:docname="IconHalloween.svg">
  <defs
     id="defs2" />
  <sodipodi:namedview
     id="base"
     pagecolor="#ffffff"
     bordercolor="#666666"
     borderopacity="1.0"
     inkscape:pageopacity="0.0"
     inkscape:pageshadow="2"
     inkscape:zoom="0.90509668"
     inkscape:cx="388.73813"
     inkscape:cy="152.59219"
     inkscape:document-units="mm"
     inkscape:current-layer="g22"
     inkscape:document-rotation="0"
     showgrid="false"
     inkscape:window-width="1920"
     inkscape:window-height="1001"
     inkscape:window-x="-9"
     inkscape:window-y="-9"
     inkscape:window-maximized="1" />
  <metadata
     id="metadata5">
    <rdf:RDF>
      <cc:Work
         rdf:about="">
        <dc:format>image/svg+xml</dc:format>
        <dc:type
           rdf:resource="http://purl.org/dc/dcmitype/StillImage" />
        <dc:title></dc:title>
      </cc:Work>
    </rdf:RDF>
  </metadata>
  <g
     inkscape:label="Ebene 1"
     inkscape:groupmode="layer"
     id="layer1">
    <g
       id="g78">
      <g
         id="g22"
         transform="matrix(3.5327121,0,0,3.5327396,-79.061045,-358.83584)">
        <rect
           style="fill:#cccccc;stroke:none;stroke-width:0.818063;paint-order:stroke fill markers"
           id="rect994"
           width="28.306864"
           height="28.306643"
           x="22.379702"
           y="101.57438"
           rx="5.6613727" />
        <ellipse
           style="fill:#ff0000;stroke:#000000;stroke-width:0.283068;stroke-miterlimit:4;stroke-dasharray:none;paint-order:stroke fill markers"
           id="path998"
           cx="28.618216"
           cy="106.28769"
           rx="2.8306863"
           ry="2.8306644" />
        <ellipse
           style="fill:#ff0000;stroke:#000000;stroke-width:0.283068;stroke-miterlimit:4;stroke-dasharray:none;paint-order:stroke fill markers"
           id="ellipse1000"
           cx="30.415701"
           cy="107.78558"
           rx="2.8306863"
           ry="2.8306644" />
        <ellipse
           style="fill:#ff0000;stroke:#000000;stroke-width:0.283068;stroke-miterlimit:4;stroke-dasharray:none;paint-order:stroke fill markers"
           id="ellipse1002"
           cx="32.36298"
           cy="109.28348"
           rx="2.8306863"
           ry="2.8306644" />
        <ellipse
           style="fill:#ff0000;stroke:#000000;stroke-width:0.283068;stroke-miterlimit:4;stroke-dasharray:none;paint-order:stroke fill markers"
           id="ellipse1004"
           cx="33.711082"
           cy="110.78137"
           rx="2.8306863"
           ry="2.8306644" />
        <ellipse
           style="fill:#ff0000;stroke:#000000;stroke-width:0.283068;stroke-miterlimit:4;stroke-dasharray:none;paint-order:stroke fill markers"
           id="ellipse1006"
           cx="35.059208"
           cy="112.27927"
           rx="2.8306863"
           ry="2.8306644" />
        <ellipse
           style="fill:#ff0000;stroke:#000000;stroke-width:0.283068;stroke-miterlimit:4;stroke-dasharray:none;paint-order:stroke fill markers"
           id="ellipse1008"
           cx="35.059208"
           cy="113.77716"
           rx="2.8306863"
           ry="2.8306644" />
        <ellipse
           style="fill:#ff0000;stroke:#000000;stroke-width:0.283068;stroke-miterlimit:4;stroke-dasharray:none;paint-order:stroke fill markers"
           id="ellipse1010"
           cx="35.059208"
           cy="115.27505"
           rx="2.8306863"
           ry="2.8306644" />
        <ellipse
           style="fill:#ff0000;stroke:#000000;stroke-width:0.283068;stroke-miterlimit:4;stroke-dasharray:none;paint-order:stroke fill markers"
           id="ellipse1012"
           cx="36.557114"
           cy="116.77294"
           rx="2.8306863"
           ry="2.8306644" />
        <ellipse
           style="fill:#ff0000;stroke:#000000;stroke-width:0.283068;stroke-miterlimit:4;stroke-dasharray:none;paint-order:stroke fill markers"
           id="ellipse1014"
           cx="38.055019"
           cy="118.27084"
           rx="2.8306863"
           ry="2.8306644" />
        <ellipse
           style="fill:#ff0000;stroke:#000000;stroke-width:0.283068;stroke-miterlimit:4;stroke-dasharray:none;paint-order:stroke fill markers"
           id="ellipse1016"
           cx="39.552925"
           cy="119.76874"
           rx="2.8306863"
           ry="2.8306644" />
        <ellipse
           style="fill:#ff0000;stroke:#000000;stroke-width:0.283068;stroke-miterlimit:4;stroke-dasharray:none;paint-order:stroke fill markers"
           id="ellipse1018"
           cx="39.552925"
           cy="121.26663"
           rx="2.8306863"
           ry="2.8306644" />
        <ellipse
           style="fill:#ff0000;stroke:#000000;stroke-width:0.283068;stroke-miterlimit:4;stroke-dasharray:none;paint-order:stroke fill markers"
           id="ellipse1020"
           cx="41.050831"
           cy="122.76453"
           rx="2.8306863"
           ry="2.8306644" />
        <ellipse
           style="fill:#ff0000;stroke:#000000;stroke-width:0.283068;stroke-miterlimit:4;stroke-dasharray:none;paint-order:stroke fill markers"
           id="ellipse1022"
           cx="42.548737"
           cy="124.26242"
           rx="2.8306863"
           ry="2.8306644" />
        <g
           id="g871"
           transform="translate(-1.0485334,-2.0970505)">
          <ellipse
             style="fill:#ffffff;stroke:#ffffff;stroke-width:0.614475;stroke-miterlimit:4;stroke-dasharray:none;paint-order:stroke fill markers"
             id="ellipse1028"
             cx="41.969662"
             cy="126.99932"
             rx="0.94843322"
             ry="0.94842595" />
          <ellipse
             style="fill:#000000;stroke:#000000;stroke-width:0.614475;stroke-miterlimit:4;stroke-dasharray:none;paint-order:stroke fill markers"
             id="path1030"
             cx="42.235279"
             cy="127.19958"
             rx="0.32007986"
             ry="0.31499681" />
        </g>
        <g
           id="g867"
           transform="translate(-2.0970669,-1.0485252)">
          <ellipse
             style="fill:#ffffff;stroke:#ffffff;stroke-width:0.614475;stroke-miterlimit:4;stroke-dasharray:none;paint-order:stroke fill markers"
             id="path1026"
             cx="45.221272"
             cy="123.74773"
             rx="0.94843322"
             ry="0.94842595" />
          <ellipse
             style="fill:#000000;stroke:#000000;stroke-width:0.614475;stroke-miterlimit:4;stroke-dasharray:none;paint-order:stroke fill markers"
             id="ellipse1032"
             cx="45.486885"
             cy="123.948"
             rx="0.32007986"
             ry="0.31499681" />
        </g>
        <g
           id="g918"
           style="fill:#ffff00;fill-opacity:1"
           transform="matrix(0.87996962,0,0,0.87996962,-8.3835186,29.085358)">
          <path
             style="fill:#ffff00;fill-opacity:1;stroke:#000000;stroke-width:0.231642;paint-order:stroke fill markers"
             d="m 45.622611,108.98378 c 1.759341,-0.9243 3.243782,-1.09848 4.777989,-1.40847 -0.0758,0.0901 0.06276,-0.0586 -0.422544,0.48755 -0.24179,0.33464 -0.09473,0.63688 -0.119174,0.95342 l 0.227524,0.98592 c -0.02409,0.21611 0.102446,0.54741 -0.140849,0.5959 -0.15774,0.15922 -0.27839,-0.21445 -0.487549,-0.15169 -0.176632,-0.0426 -0.162669,0.35322 -0.205854,0.61756 -0.07829,0.18315 -0.276402,-0.21049 -0.46588,-0.11919 -0.141862,0.008 -0.06912,0.66483 -0.162517,0.59588 -0.34971,-0.0614 -0.331894,-0.12273 -0.476715,-0.18418 -0.231036,-0.37466 -0.477806,-0.73247 -1.105113,-0.68256 l -0.232196,-0.802 c -0.277282,-0.19876 -0.581198,-0.27767 -0.916256,-0.21643 z"
             id="path914"
             sodipodi:nodetypes="ccccccccccccccc" />
          <path
             style="fill:#ffff00;fill-opacity:1;stroke:#000000;stroke-width:0.231642;paint-order:stroke fill markers"
             d="m 42.504896,109.48932 c -1.759341,-0.9243 -3.243782,-1.09848 -4.777989,-1.40847 0.0758,0.0901 -0.06276,-0.0586 0.422544,0.48755 0.24179,0.33464 0.09473,0.63688 0.119174,0.95342 l -0.227524,0.98592 c 0.02409,0.21611 -0.102446,0.54741 0.140849,0.5959 0.15774,0.15922 0.27839,-0.21445 0.487549,-0.15169 0.176632,-0.0426 0.162669,0.35322 0.205854,0.61756 0.07829,0.18315 0.276402,-0.21049 0.46588,-0.11919 0.141862,0.008 0.06912,0.66483 0.162517,0.59588 0.34971,-0.0614 0.331894,-0.12273 0.476715,-0.18418 0.231036,-0.37466 0.477806,-0.73247 1.105113,-0.68256 l 0.232196,-0.802 c 0.277282,-0.19876 0.581198,-0.27767 0.916256,-0.21643 z"
             id="path916"
             sodipodi:nodetypes="ccccccccccccccc" />
        </g>
        <ellipse
           style="fill:#ffd42a;stroke:none;stroke-width:0.283068;stroke-miterlimit:4;stroke-dasharray:none;paint-order:stroke fill markers"
           id="path1034"
           cx="30.614815"
           cy="126.35897"
           rx="2.264549"
           ry="2.2645314" />
        <g
           id="g912"
           style="fill:#00ff00;fill-opacity:1"
           transform="matrix(0.61979982,0,0,0.61979982,0.01885087,52.516832)">
          <path
             style="fill:#00ff00;fill-opacity:1;stroke:#000000;stroke-width:0.231642;paint-order:stroke fill markers"
             d="m 45.622611,108.98378 c 1.759341,-0.9243 3.243782,-1.09848 4.777989,-1.40847 -0.0758,0.0901 0.06276,-0.0586 -0.422544,0.48755 -0.24179,0.33464 -0.09473,0.63688 -0.119174,0.95342 l 0.227524,0.98592 c -0.02409,0.21611 0.102446,0.54741 -0.140849,0.5959 -0.15774,0.15922 -0.27839,-0.21445 -0.487549,-0.15169 -0.176632,-0.0426 -0.162669,0.35322 -0.205854,0.61756 -0.07829,0.18315 -0.276402,-0.21049 -0.46588,-0.11919 -0.141862,0.008 -0.06912,0.66483 -0.162517,0.59588 -0.34971,-0.0614 -0.331894,-0.12273 -0.476715,-0.18418 -0.231036,-0.37466 -0.477806,-0.73247 -1.105113,-0.68256 l -0.232196,-0.802 c -0.277282,-0.19876 -0.581198,-0.27767 -0.916256,-0.21643 z"
             id="path908"
             sodipodi:nodetypes="ccccccccccccccc" />
          <path
             style="fill:#00ff00;fill-opacity:1;stroke:#000000;stroke-width:0.231642;paint-order:stroke fill markers"
             d="m 42.504896,109.48932 c -1.759341,-0.9243 -3.243782,-1.09848 -4.777989,-1.40847 0.0758,0.0901 -0.06276,-0.0586 0.422544,0.48755 0.24179,0.33464 0.09473,0.63688 0.119174,0.95342 l -0.227524,0.98592 c 0.02409,0.21611 -0.102446,0.54741 0.140849,0.5959 0.15774,0.15922 0.27839,-0.21445 0.487549,-0.15169 0.176632,-0.0426 0.162669,0.35322 0.205854,0.61756 0.07829,0.18315 0.276402,-0.21049 0.46588,-0.11919 0.141862,0.008 0.06912,0.66483 0.162517,0.59588 0.34971,-0.0614 0.331894,-0.12273 0.476715,-0.18418 0.231036,-0.37466 0.477806,-0.73247 1.105113,-0.68256 l 0.232196,-0.802 c 0.277282,-0.19876 0.581198,-0.27767 0.916256,-0.21643 z"
             id="path910"
             sodipodi:nodetypes="ccccccccccccccc" />
        </g>
        <ellipse
           style="fill:#5fd38d;stroke:none;stroke-width:0.283068;stroke-miterlimit:4;stroke-dasharray:none;paint-order:stroke fill markers"
           id="path1036"
           cx="27.357841"
           cy="120.61297"
           rx="1.6984118"
           ry="1.6983986" />
        <g
           id="g900"
           style="fill:#00ffff">
          <path
             style="fill:#00ffff;stroke:#000000;stroke-width:0.231642;paint-order:stroke fill markers"
             d="m 45.622611,108.98378 c 1.759341,-0.9243 3.243782,-1.09848 4.777989,-1.40847 -0.0758,0.0901 0.06276,-0.0586 -0.422544,0.48755 -0.24179,0.33464 -0.09473,0.63688 -0.119174,0.95342 l 0.227524,0.98592 c -0.02409,0.21611 0.102446,0.54741 -0.140849,0.5959 -0.15774,0.15922 -0.27839,-0.21445 -0.487549,-0.15169 -0.176632,-0.0426 -0.162669,0.35322 -0.205854,0.61756 -0.07829,0.18315 -0.276402,-0.21049 -0.46588,-0.11919 -0.141862,0.008 -0.06912,0.66483 -0.162517,0.59588 -0.34971,-0.0614 -0.331894,-0.12273 -0.476715,-0.18418 -0.231036,-0.37466 -0.477806,-0.73247 -1.105113,-0.68256 l -0.232196,-0.802 c -0.277282,-0.19876 -0.581198,-0.27767 -0.916256,-0.21643 z"
             id="path894"
             sodipodi:nodetypes="ccccccccccccccc" />
          <path
             style="fill:#00ffff;stroke:#000000;stroke-width:0.231642;paint-order:stroke fill markers"
             d="m 42.504896,109.48932 c -1.759341,-0.9243 -3.243782,-1.09848 -4.777989,-1.40847 0.0758,0.0901 -0.06276,-0.0586 0.422544,0.48755 0.24179,0.33464 0.09473,0.63688 0.119174,0.95342 l -0.227524,0.98592 c 0.02409,0.21611 -0.102446,0.54741 0.140849,0.5959 0.15774,0.15922 0.27839,-0.21445 0.487549,-0.15169 0.176632,-0.0426 0.162669,0.35322 0.205854,0.61756 0.07829,0.18315 0.276402,-0.21049 0.46588,-0.11919 0.141862,0.008 0.06912,0.66483 0.162517,0.59588 0.34971,-0.0614 0.331894,-0.12273 0.476715,-0.18418 0.231036,-0.37466 0.477806,-0.73247 1.105113,-0.68256 l 0.232196,-0.802 c 0.277282,-0.19876 0.581198,-0.27767 0.916256,-0.21643 z"
             id="path896"
             sodipodi:nodetypes="ccccccccccccccc" />
        </g>
        <ellipse
           style="fill:#00ccff;stroke:none;stroke-width:0.283068;stroke-miterlimit:4;stroke-dasharray:none;paint-order:stroke fill markers"
           id="path1038"
           cx="44.198784"
           cy="110.15366"
           rx="2.8306863"
           ry="2.8306644" />
        <g
           id="g906"
           style="fill:#00d4aa;fill-opacity:1"
           transform="matrix(0.61979982,0,0,0.61979982,9.7624674,37.105075)">
          <path
             style="fill:#00d4aa;stroke:#000000;stroke-width:0.231642;paint-order:stroke fill markers;fill-opacity:1"
             d="m 45.622611,108.98378 c 1.759341,-0.9243 3.243782,-1.09848 4.777989,-1.40847 -0.0758,0.0901 0.06276,-0.0586 -0.422544,0.48755 -0.24179,0.33464 -0.09473,0.63688 -0.119174,0.95342 l 0.227524,0.98592 c -0.02409,0.21611 0.102446,0.54741 -0.140849,0.5959 -0.15774,0.15922 -0.27839,-0.21445 -0.487549,-0.15169 -0.176632,-0.0426 -0.162669,0.35322 -0.205854,0.61756 -0.07829,0.18315 -0.276402,-0.21049 -0.46588,-0.11919 -0.141862,0.008 -0.06912,0.66483 -0.162517,0.59588 -0.34971,-0.0614 -0.331894,-0.12273 -0.476715,-0.18418 -0.231036,-0.37466 -0.477806,-0.73247 -1.105113,-0.68256 l -0.232196,-0.802 c -0.277282,-0.19876 -0.581198,-0.27767 -0.916256,-0.21643 z"
             id="path902"
             sodipodi:nodetypes="ccccccccccccccc" />
          <path
             style="fill:#00d4aa;stroke:#000000;stroke-width:0.231642;paint-order:stroke fill markers;fill-opacity:1"
             d="m 42.504896,109.48932 c -1.759341,-0.9243 -3.243782,-1.09848 -4.777989,-1.40847 0.0758,0.0901 -0.06276,-0.0586 0.422544,0.48755 0.24179,0.33464 0.09473,0.63688 0.119174,0.95342 l -0.227524,0.98592 c 0.02409,0.21611 -0.102446,0.54741 0.140849,0.5959 0.15774,0.15922 0.27839,-0.21445 0.487549,-0.15169 0.176632,-0.0426 0.162669,0.35322 0.205854,0.61756 0.07829,0.18315 0.276402,-0.21049 0.46588,-0.11919 0.141862,0.008 0.06912,0.66483 0.162517,0.59588 0.34971,-0.0614 0.331894,-0.12273 0.476715,-0.18418 0.231036,-0.37466 0.477806,-0.73247 1.105113,-0.68256 l 0.232196,-0.802 c 0.277282,-0.19876 0.581198,-0.27767 0.916256,-0.21643 z"
             id="path904"
             sodipodi:nodetypes="ccccccccccccccc" />
        </g>
        <ellipse
           style="fill:#00ffcc;stroke:none;stroke-width:0.283068;stroke-miterlimit:4;stroke-dasharray:none;paint-order:stroke fill markers"
           id="path1040"
           cx="37.208958"
           cy="105.20677"
           rx="1.6984118"
           ry="1.6983986" />
        <g
           id="g924"
           style="fill:#800080;fill-opacity:1"
           transform="matrix(0.43709595,0,0,0.43709595,27.266798,79.865964)">
          <path
             style="fill:#800080;fill-opacity:1;stroke:#000000;stroke-width:0.231642;paint-order:stroke fill markers"
             d="m 45.622611,108.98378 c 1.759341,-0.9243 3.243782,-1.09848 4.777989,-1.40847 -0.0758,0.0901 0.06276,-0.0586 -0.422544,0.48755 -0.24179,0.33464 -0.09473,0.63688 -0.119174,0.95342 l 0.227524,0.98592 c -0.02409,0.21611 0.102446,0.54741 -0.140849,0.5959 -0.15774,0.15922 -0.27839,-0.21445 -0.487549,-0.15169 -0.176632,-0.0426 -0.162669,0.35322 -0.205854,0.61756 -0.07829,0.18315 -0.276402,-0.21049 -0.46588,-0.11919 -0.141862,0.008 -0.06912,0.66483 -0.162517,0.59588 -0.34971,-0.0614 -0.331894,-0.12273 -0.476715,-0.18418 -0.231036,-0.37466 -0.477806,-0.73247 -1.105113,-0.68256 l -0.232196,-0.802 c -0.277282,-0.19876 -0.581198,-0.27767 -0.916256,-0.21643 z"
             id="path920"
             sodipodi:nodetypes="ccccccccccccccc" />
          <path
             style="fill:#800080;fill-opacity:1;stroke:#000000;stroke-width:0.231642;paint-order:stroke fill markers"
             d="m 42.504896,109.48932 c -1.759341,-0.9243 -3.243782,-1.09848 -4.777989,-1.40847 0.0758,0.0901 -0.06276,-0.0586 0.422544,0.48755 0.24179,0.33464 0.09473,0.63688 0.119174,0.95342 l -0.227524,0.98592 c 0.02409,0.21611 -0.102446,0.54741 0.140849,0.5959 0.15774,0.15922 0.27839,-0.21445 0.487549,-0.15169 0.176632,-0.0426 0.162669,0.35322 0.205854,0.61756 0.07829,0.18315 0.276402,-0.21049 0.46588,-0.11919 0.141862,0.008 0.06912,0.66483 0.162517,0.59588 0.34971,-0.0614 0.331894,-0.12273 0.476715,-0.18418 0.231036,-0.37466 0.477806,-0.73247 1.105113,-0.68256 l 0.232196,-0.802 c 0.277282,-0.19876 0.581198,-0.27767 0.916256,-0.21643 z"
             id="path922"
             sodipodi:nodetypes="ccccccccccccccc" />
        </g>
        <ellipse
           style="fill:#8d5fd3;stroke:none;stroke-width:0.283068;stroke-miterlimit:4;stroke-dasharray:none;paint-order:stroke fill markers"
           id="path1042"
           cx="46.495968"
           cy="127.9373"
           rx="1.1322745"
           ry="1.1322657" />
        <ellipse
           style="fill:#ffffff;stroke:#000000;stroke-width:0.283068;paint-order:stroke fill markers"
           id="path873"
           cx="-54.396427"
           cy="121.16376"
           rx="1.446409"
           ry="0.82384431"
           transform="matrix(0.72702618,-0.68660974,0.68661539,0.72702084,0,0)" />
        <path
           style="fill:#ffffff;stroke:#000000;stroke-width:0.251297;paint-order:stroke fill markers"
           d="m 42.554843,125.6525 0.328136,0.11564 -0.172172,-0.39466 z"
           id="path875"
           sodipodi:nodetypes="cccc" />
        <path
           style="fill:#ffffff;stroke:#000000;stroke-width:0.213015;paint-order:stroke fill markers"
           d="m 43.413668,124.56954 0.404568,0.28417 -0.08165,-0.44797 z"
           id="path879" />
        <path
           style="fill:#ffffff;fill-opacity:1;stroke:#000000;stroke-width:0.251297;paint-order:stroke fill markers"
           d="m 44.733917,125.3055 -0.328136,-0.11564 0.172172,0.39466 z"
           id="path881"
           sodipodi:nodetypes="cccc" />
        <path
           style="fill:#ffffff;stroke:#000000;stroke-width:0.213015;paint-order:stroke fill markers"
           d="m 43.798963,126.35205 -0.404568,-0.28417 0.08165,0.44797 z"
           id="path883" />
        <g
           id="g868"
           transform="matrix(0.84666841,0.84877996,-0.84879317,0.84666841,108.8393,-10.345299)"
           style="fill:#ffff00;stroke:#000000">
          <path
             style="fill:#ffff00;stroke:#000000;stroke-width:0.251297;paint-order:stroke fill markers"
             d="m 34.503604,127.7121 0.328136,0.11564 -0.172172,-0.39466 z"
             id="path862"
             sodipodi:nodetypes="cccc" />
          <path
             style="fill:#ffff00;stroke:#000000;stroke-width:0.213015;paint-order:stroke fill markers"
             d="m 35.362429,126.62914 0.404568,0.28417 -0.08165,-0.44797 z"
             id="path864" />
        </g>
        <g
           id="g874"
           transform="matrix(1.0862291,1.0889381,-1.088955,1.0862291,144.487,-65.317384)"
           style="fill:#00ffff;stroke:#000000">
          <path
             style="fill:#00ffff;stroke:#000000;stroke-width:0.251297;paint-order:stroke fill markers"
             d="m 34.503604,127.7121 0.328136,0.11564 -0.172172,-0.39466 z"
             id="path870"
             sodipodi:nodetypes="cccc" />
          <path
             style="fill:#00ffff;stroke:#000000;stroke-width:0.213015;paint-order:stroke fill markers"
             d="m 35.362429,126.62914 0.404568,0.28417 -0.08165,-0.44797 z"
             id="path872" />
        </g>
        <g
           id="g880"
           transform="matrix(0.55194189,0.55331841,-0.55332702,0.55194189,78.297491,31.891235)"
           style="fill:#00ff00;stroke:#000000">
          <path
             style="fill:#00ff00;stroke:#000000;stroke-width:0.251297;paint-order:stroke fill markers"
             d="m 34.503604,127.7121 0.328136,0.11564 -0.172172,-0.39466 z"
             id="path876"
             sodipodi:nodetypes="cccc" />
          <path
             style="fill:#00ff00;stroke:#000000;stroke-width:0.213015;paint-order:stroke fill markers"
             d="m 35.362429,126.62914 0.404568,0.28417 -0.08165,-0.44797 z"
             id="path878" />
        </g>
        <g
           id="g886"
           transform="matrix(0.55194189,0.55331841,-0.55332702,0.55194189,88.183664,16.275698)"
           style="fill:#00d4aa;stroke:#000000">
          <path
             style="fill:#00d4aa;stroke:#000000;stroke-width:0.251297;paint-order:stroke fill markers"
             d="m 34.503604,127.7121 0.328136,0.11564 -0.172172,-0.39466 z"
             id="path882"
             sodipodi:nodetypes="cccc" />
          <path
             style="fill:#00d4aa;stroke:#000000;stroke-width:0.213015;paint-order:stroke fill markers"
             d="m 35.362429,126.62914 0.404568,0.28417 -0.08165,-0.44797 z"
             id="path884" />
        </g>
        <g
           id="g892"
           transform="matrix(0.4185975,0.41964147,-0.419648,0.4185975,85.157041,60.566148)"
           style="fill:#800080;stroke:#000000">
          <path
             style="fill:#800080;stroke:#000000;stroke-width:0.251297;paint-order:stroke fill markers"
             d="m 34.503604,127.7121 0.328136,0.11564 -0.172172,-0.39466 z"
             id="path888"
             sodipodi:nodetypes="cccc" />
          <path
             style="fill:#800080;stroke:#000000;stroke-width:0.213015;paint-order:stroke fill markers"
             d="m 35.362429,126.62914 0.404568,0.28417 -0.08165,-0.44797 z"
             id="path890" />
        </g>
      </g>
    </g>
  </g>
</svg>
